<?xml version="1.0" encoding="utf-8"?>
<!-- Generator: Adobe Illustrator 25.4.1, SVG Export Plug-In . SVG Version: 6.00 Build 0)  -->
<svg version="1.1" id="Layer_1" xmlns="http://www.w3.org/2000/svg" xmlns:xlink="http://www.w3.org/1999/xlink" x="0px" y="0px"
	 viewBox="0 0 1280 360.8" style="enable-background:new 0 0 1280 360.8;" xml:space="preserve">
<style type="text/css">
	.st0{fill:#FFFFFF;}
	.st1{fill-rule:evenodd;clip-rule:evenodd;fill:#EE243D;}
	.st2{fill:#EE243D;}
	.st3{fill-rule:evenodd;clip-rule:evenodd;fill:#FFFFFF;}
</style>
<g>
	<path class="st0" d="M472.7,244.6h-10.8c-13.2,0-23.9-10.7-23.9-23.9V115.5h9.5c15.7,0,30.4,7.7,39.3,20.7l32.6,47.3v-68h10.9
		c13.2,0,23.8,10.7,23.8,23.8v105.2h-4.7c-18.8,0-36.5-9.3-47.1-24.8l-29.8-43.2L472.7,244.6L472.7,244.6z"/>
	<path class="st0" d="M599.4,238.1c-10.2-6-18.3-14.1-24.3-24.4c-6-10.2-9-21.3-9-33.4s3-23.2,9-33.4s14.1-18.3,24.3-24.3
		s21.3-9,33.4-9s23.3,3,33.6,8.9c10.2,6,18.3,14.1,24.3,24.4s9,21.4,9,33.5s-3,23.2-9,33.5s-14.2,18.4-24.3,24.4
		c-10.2,6-21.4,8.9-33.6,8.9S609.6,244.2,599.4,238.1L599.4,238.1z M648.9,207.9c4.9-2.9,8.8-6.7,11.7-11.6
		c3.2-5.4,4.6-11.3,4.2-17.8c-0.2-4.4-1.4-8.7-3.4-12.6c-2.9-5.7-7.1-10.1-12.5-13.2c-4.9-2.9-10.3-4.3-16.2-4.3s-11,1.4-15.8,4.3
		c-5.1,3-9,7.2-12,12.5c-2.2,4.1-3.5,8.6-3.8,13.2c-0.4,6.5,1,12.5,4.2,18c2.9,4.9,6.7,8.8,11.5,11.6s10.1,4.3,15.8,4.3
		S644,210.8,648.9,207.9L648.9,207.9z"/>
	<path class="st0" d="M782.9,244.6h-13c-19.4,0-30.8-10-36.6-25.1l-40.3-104h37.3l32.9,85l26.8-69.7c3.5-9.2,12.4-15.3,22.3-15.3h21
		L782.9,244.6L782.9,244.6z"/>
	<path class="st0" d="M836.5,244.6h-37.3l50.1-129.1h23.6c9.8,0,18.7,6,22.2,15.2l44.3,113.9h-37.3l-7.9-20.8h-49.7L836.5,244.6
		L836.5,244.6z M869.4,159.6L856.3,194h26.2L869.4,159.6L869.4,159.6z"/>
	<path class="st0" d="M907.8,115.9H932c8.5,0,13.3,4.6,17.6,12l17.7,59.4l23.9-59.3c4.2-7.4,12.2-12,20.7-12h20.9v129h-19
		c-8.7,0-15.7-7-15.7-15.7v-48l-13.7,37c-5.1,18.7-29.5,16-36.2,0L907.8,115.9L907.8,115.9z"/>
	<path class="st0" d="M1145.6,244.6h-98.4V115.5h98.4v31h-63.8v18.4h49.1v30.3h-49.1v18.4h63.8V244.6L1145.6,244.6z"/>
	<path class="st0" d="M1157.5,244.6V115.5h58c11.7,0,22.5,2.9,32.3,8.7c9.9,5.8,17.7,13.7,23.5,23.6c5.8,9.9,8.7,20.7,8.7,32.3
		s-2.9,22.5-8.7,32.4c-5.8,9.9-13.6,17.7-23.5,23.5s-20.7,8.7-32.3,8.7L1157.5,244.6L1157.5,244.6z M1215.5,209.8
		c5.4,0,10.3-1.3,14.9-4c4.5-2.6,8.1-6.2,10.8-10.8s4-9.6,4-15s-1.3-10.4-4-14.9c-2.6-4.5-6.2-8.1-10.8-10.9c-4.5-2.7-9.5-4-14.9-4
		H1192v59.6L1215.5,209.8L1215.5,209.8z"/>
</g>
<g>
	<g>
		<path class="st1" d="M130.1,0h100.6c7.7,0,14.1,6.2,14.4,13.8c-0.5,127-104.3,230.7-231.3,231.3C6.2,244.8,0,238.4,0,230.7V117.2
			c0-0.8,0.7-1.5,1.5-1.5h112.6c0.8,0,1.5-0.7,1.5-1.5V14.4C115.7,6.5,122.2,0,130.1,0L130.1,0L130.1,0z"/>
		<path class="st2" d="M230.7,360.8H130.1c-7.7,0-14.1-6.2-14.4-13.8C116.2,220,220,116.2,347,115.7c7.6,0.3,13.8,6.7,13.8,14.4
			v113.5c0,0.9-0.7,1.5-1.5,1.5H246.6c-0.9,0-1.5,0.7-1.5,1.5v99.8C245.1,354.3,238.6,360.8,230.7,360.8L230.7,360.8L230.7,360.8z"
			/>
	</g>
	<path class="st3" d="M272.4,84.7c21.6-28.3,24.9-41.3,6.9-67.3c-1-1.4,0.7-3.1,2.1-2.1c23.4,16.3,35.4,16.2,58.4,0.3
		c1.4-1,3.1,0.7,2.1,2.1c-16,22.9-16.1,34.8,0,58.3c1,1.4-0.7,3.1-2.1,2.1C313.9,60.1,300.9,63.2,272.4,84.7L272.4,84.7L272.4,84.7z
		"/>
</g>
</svg>
